<svg width="100" height="105" viewBox="0 0 100 105">
<path d="M65.7324 22.5C65.7324 22.667 65.7291 22.8337 65.7226 23H73.7266C73.7305 22.8338 73.7324 22.6671 73.7324 22.5C73.7324 10.0736 62.9873 0 49.7324 0C36.4776 0 25.7324 10.0736 25.7324 22.5C25.7324 22.6671 25.7344 22.8338 25.7382 23H33.7422C33.7357 22.8337 33.7324 22.667 33.7324 22.5C33.7324 14.9704 40.4017 8 49.7324 8C59.0632 8 65.7324 14.9704 65.7324 22.5Z"></path>
<path fill-rule="evenodd" clip-rule="evenodd" d="M0.00857816 32.2592C-0.14118 29.9529 1.68905 28 4.00017 28H95.4638C97.775 28 99.6052 29.9529 99.4554 32.2592L94.9749 101.259C94.8383 103.363 93.0918 105 90.9833 105H8.48069C6.37218 105 4.62573 103.363 4.4891 101.259L0.00857816 32.2592ZM11.0475 94.1908L8.26834 36H91.1957L88.4166 94.1908C88.3147 96.3233 86.5561 98 84.4211 98H15.0429C12.9079 98 11.1493 96.3233 11.0475 94.1908Z"></path>
</svg>